<svg xmlns="http://www.w3.org/2000/svg" width="676" height="404">
<g transform="translate(20,20)">
<rect x="0.0" y="0.0" width="636.0" height="344.0" fill="#f4f4f4" stroke="#222" stroke-width="1.5"/>
<rect x="6.0" y="6.0" width="624.0" height="332.0" fill="none" stroke="#bbb" stroke-width="1"/>
<rect x="22.0" y="122.0" width="328.0" height="196.0" fill="#cfe8ff" stroke="#2b6cb0" stroke-width="1.2"/>
<rect x="30.0" y="130.0" width="312.0" height="180.0" fill="#fff" stroke="#2b6cb0" stroke-width="1" stroke-dasharray="4 3"/>
<text x="186" y="220" font-size="11" text-anchor="middle">panel 1 164x98</text>
<rect x="374.0" y="138.0" width="240.0" height="180.0" fill="#ffe6cc" stroke="#c05621" stroke-width="1.2"/>
<text x="494" y="228" font-size="11" text-anchor="middle">FPGA bay (open)</text>
<circle cx="42.0" cy="54.0" r="7.0" fill="#ddd" stroke="#333"/>
<text x="42.0" y="78.0" font-size="9" text-anchor="middle">yaw</text>
<circle cx="97.2" cy="54.0" r="7.0" fill="#ddd" stroke="#333"/>
<text x="97.2" y="78.0" font-size="9" text-anchor="middle">pitch</text>
<circle cx="152.4" cy="54.0" r="7.0" fill="#ddd" stroke="#333"/>
<text x="152.4" y="78.0" font-size="9" text-anchor="middle">zoom</text>
<circle cx="207.6" cy="54.0" r="7.0" fill="#ddd" stroke="#333"/>
<text x="207.6" y="78.0" font-size="9" text-anchor="middle">zscale</text>
<circle cx="262.8" cy="54.0" r="7.0" fill="#ddd" stroke="#333"/>
<text x="262.8" y="78.0" font-size="9" text-anchor="middle">amp</text>
<circle cx="318.0" cy="54.0" r="7.0" fill="#ddd" stroke="#333"/>
<text x="318.0" y="78.0" font-size="9" text-anchor="middle">cond</text>
<circle cx="373.2" cy="54.0" r="7.0" fill="#ddd" stroke="#333"/>
<text x="373.2" y="78.0" font-size="9" text-anchor="middle">field</text>
<circle cx="428.4" cy="54.0" r="6.0" fill="#ddd" stroke="#333"/>
<text x="428.4" y="78.0" font-size="9" text-anchor="middle">mode</text>
<circle cx="483.6" cy="54.0" r="6.0" fill="#ddd" stroke="#333"/>
<text x="483.6" y="78.0" font-size="9" text-anchor="middle">disp</text>
<circle cx="538.8" cy="54.0" r="6.0" fill="#ddd" stroke="#333"/>
<text x="538.8" y="78.0" font-size="9" text-anchor="middle">wall</text>
<circle cx="594.0" cy="54.0" r="12.0" fill="#ddd" stroke="#333"/>
<text x="594.0" y="78.0" font-size="9" text-anchor="middle">clear</text>
<rect x="278.0" y="338.0" width="80.0" height="6.0" fill="#333"/>
<text x="318" y="364" font-size="9" text-anchor="middle">cable slot</text>
</g></svg>